<svg xmlns="http://www.w3.org/2000/svg" viewBox="0 0 1200 1120" width="1200" height="1120">
  <!-- 배경 -->
  <rect width="1200" height="1120" fill="#f8f9fa"/>

  <!-- 제목 -->
  <text x="600" y="40" font-family="Arial" font-size="28" font-weight="bold" text-anchor="middle">쿠버네티스 아키텍처</text>

  <!-- 레이어드 아키텍처 배경 -->
  <rect x="40" y="70" width="1120" height="1020" rx="10" ry="10" fill="#f5f5f5" stroke="#666666" stroke-width="1"/>

  <!-- 외부 액세스 레이어 -->
  <rect x="50" y="90" width="1100" height="100" rx="10" ry="10" fill="#f5f5f5" stroke="#666666" stroke-width="2"/>
  <text x="600" y="120" font-family="Arial" font-size="20" font-weight="bold" text-anchor="middle">외부 액세스 레이어</text>

  <!-- 외부 액세스 컴포넌트 -->
  <rect x="100" y="135" width="200" height="40" rx="5" ry="5" fill="#dae8fc" stroke="#6c8ebf" stroke-width="2"/>
  <text x="200" y="160" font-family="Arial" font-size="16" text-anchor="middle">외부 로드 밸런서</text>

  <rect x="350" y="135" width="200" height="40" rx="5" ry="5" fill="#dae8fc" stroke="#6c8ebf" stroke-width="2"/>
  <text x="450" y="160" font-family="Arial" font-size="16" text-anchor="middle">Ingress Controller</text>

  <rect x="600" y="135" width="200" height="40" rx="5" ry="5" fill="#dae8fc" stroke="#6c8ebf" stroke-width="2"/>
  <text x="700" y="160" font-family="Arial" font-size="16" text-anchor="middle">API Gateway</text>

  <rect x="850" y="135" width="200" height="40" rx="5" ry="5" fill="#dae8fc" stroke="#6c8ebf" stroke-width="2"/>
  <text x="950" y="160" font-family="Arial" font-size="16" text-anchor="middle">CDN</text>

  <!-- 컨트롤 플레인 레이어 -->
  <rect x="50" y="200" width="1100" height="220" rx="10" ry="10" fill="#dae8fc" stroke="#6c8ebf" stroke-width="2"/>
  <text x="600" y="225" font-family="Arial" font-size="20" font-weight="bold" text-anchor="middle">컨트롤 플레인</text>

  <!-- 컨트롤 플레인 노드들 -->
  <rect x="80" y="240" width="320" height="160" rx="5" ry="5" fill="#ffffff" stroke="#6c8ebf" stroke-width="2"/>
  <text x="240" y="265" font-family="Arial" font-size="16" font-weight="bold" text-anchor="middle">컨트롤 플레인 노드 1</text>

  <rect x="100" y="280" width="120" height="30" rx="5" ry="5" fill="#e1d5e7" stroke="#9673a6" stroke-width="2"/>
  <text x="160" y="300" font-family="Arial" font-size="14" text-anchor="middle">kube-apiserver</text>

  <rect x="230" y="280" width="150" height="30" rx="5" ry="5" fill="#e1d5e7" stroke="#9673a6" stroke-width="2"/>
  <text x="305" y="300" font-family="Arial" font-size="14" text-anchor="middle">cloud-controller</text>

  <rect x="100" y="320" width="120" height="30" rx="5" ry="5" fill="#e1d5e7" stroke="#9673a6" stroke-width="2"/>
  <text x="160" y="340" font-family="Arial" font-size="14" text-anchor="middle">etcd</text>

  <rect x="230" y="320" width="150" height="30" rx="5" ry="5" fill="#e1d5e7" stroke="#9673a6" stroke-width="2"/>
  <text x="305" y="340" font-family="Arial" font-size="14" text-anchor="middle">kube-scheduler</text>

  <rect x="100" y="360" width="280" height="30" rx="5" ry="5" fill="#e1d5e7" stroke="#9673a6" stroke-width="2"/>
  <text x="240" y="380" font-family="Arial" font-size="14" text-anchor="middle">kube-controller-manager</text>

  <!-- 컨트롤 플레인 노드 2 -->
  <rect x="440" y="240" width="320" height="160" rx="5" ry="5" fill="#ffffff" stroke="#6c8ebf" stroke-width="2"/>
  <text x="600" y="265" font-family="Arial" font-size="16" font-weight="bold" text-anchor="middle">컨트롤 플레인 노드 2</text>

  <rect x="460" y="280" width="120" height="30" rx="5" ry="5" fill="#e1d5e7" stroke="#9673a6" stroke-width="2"/>
  <text x="520" y="300" font-family="Arial" font-size="14" text-anchor="middle">kube-apiserver</text>

  <rect x="590" y="280" width="150" height="30" rx="5" ry="5" fill="#e1d5e7" stroke="#9673a6" stroke-width="2"/>
  <text x="665" y="300" font-family="Arial" font-size="14" text-anchor="middle">cloud-controller</text>

  <rect x="460" y="320" width="120" height="30" rx="5" ry="5" fill="#e1d5e7" stroke="#9673a6" stroke-width="2"/>
  <text x="520" y="340" font-family="Arial" font-size="14" text-anchor="middle">etcd</text>

  <rect x="590" y="320" width="150" height="30" rx="5" ry="5" fill="#e1d5e7" stroke="#9673a6" stroke-width="2"/>
  <text x="665" y="340" font-family="Arial" font-size="14" text-anchor="middle">kube-scheduler</text>

  <rect x="460" y="360" width="280" height="30" rx="5" ry="5" fill="#e1d5e7" stroke="#9673a6" stroke-width="2"/>
  <text x="600" y="380" font-family="Arial" font-size="14" text-anchor="middle">kube-controller-manager</text>

  <!-- 컨트롤 플레인 노드 3 -->
  <rect x="800" y="240" width="320" height="160" rx="5" ry="5" fill="#ffffff" stroke="#6c8ebf" stroke-width="2"/>
  <text x="960" y="265" font-family="Arial" font-size="16" font-weight="bold" text-anchor="middle">컨트롤 플레인 노드 3</text>

  <rect x="820" y="280" width="120" height="30" rx="5" ry="5" fill="#e1d5e7" stroke="#9673a6" stroke-width="2"/>
  <text x="880" y="300" font-family="Arial" font-size="14" text-anchor="middle">kube-apiserver</text>

  <rect x="950" y="280" width="150" height="30" rx="5" ry="5" fill="#e1d5e7" stroke="#9673a6" stroke-width="2"/>
  <text x="1025" y="300" font-family="Arial" font-size="14" text-anchor="middle">cloud-controller</text>

  <rect x="820" y="320" width="120" height="30" rx="5" ry="5" fill="#e1d5e7" stroke="#9673a6" stroke-width="2"/>
  <text x="880" y="340" font-family="Arial" font-size="14" text-anchor="middle">etcd</text>

  <rect x="950" y="320" width="150" height="30" rx="5" ry="5" fill="#e1d5e7" stroke="#9673a6" stroke-width="2"/>
  <text x="1025" y="340" font-family="Arial" font-size="14" text-anchor="middle">kube-scheduler</text>

  <rect x="820" y="360" width="280" height="30" rx="5" ry="5" fill="#e1d5e7" stroke="#9673a6" stroke-width="2"/>
  <text x="960" y="380" font-family="Arial" font-size="14" text-anchor="middle">kube-controller-manager</text>

  <!-- 네트워킹 레이어 -->
  <rect x="50" y="430" width="1100" height="80" rx="10" ry="10" fill="#d5e8d4" stroke="#82b366" stroke-width="2"/>
  <text x="600" y="455" font-family="Arial" font-size="20" font-weight="bold" text-anchor="middle">네트워킹 레이어</text>

  <rect x="80" y="470" width="200" height="30" rx="5" ry="5" fill="#ffffff" stroke="#82b366" stroke-width="2"/>
  <text x="180" y="490" font-family="Arial" font-size="14" text-anchor="middle">CNI (Calico/Cilium)</text>

  <rect x="300" y="470" width="200" height="30" rx="5" ry="5" fill="#ffffff" stroke="#82b366" stroke-width="2"/>
  <text x="400" y="490" font-family="Arial" font-size="14" text-anchor="middle">네트워크 정책</text>

  <rect x="520" y="470" width="200" height="30" rx="5" ry="5" fill="#ffffff" stroke="#82b366" stroke-width="2"/>
  <text x="620" y="490" font-family="Arial" font-size="14" text-anchor="middle">서비스 메시 (Istio/Linkerd)</text>

  <rect x="740" y="470" width="180" height="30" rx="5" ry="5" fill="#ffffff" stroke="#82b366" stroke-width="2"/>
  <text x="830" y="490" font-family="Arial" font-size="14" text-anchor="middle">DNS (CoreDNS)</text>

  <rect x="940" y="470" width="180" height="30" rx="5" ry="5" fill="#ffffff" stroke="#82b366" stroke-width="2"/>
  <text x="1030" y="490" font-family="Arial" font-size="14" text-anchor="middle">멀티클러스터 네트워킹</text>

  <!-- 워커 노드 레이어 -->
  <rect x="50" y="520" width="1100" height="240" rx="10" ry="10" fill="#fff2cc" stroke="#d6b656" stroke-width="2"/>
  <text x="600" y="545" font-family="Arial" font-size="20" font-weight="bold" text-anchor="middle">워커 노드 레이어</text>

  <!-- 워커 노드 1 -->
  <rect x="80" y="560" width="320" height="180" rx="5" ry="5" fill="#ffffff" stroke="#d6b656" stroke-width="2"/>
  <text x="240" y="585" font-family="Arial" font-size="16" font-weight="bold" text-anchor="middle">워커 노드 1</text>

  <rect x="100" y="600" width="120" height="30" rx="5" ry="5" fill="#e1d5e7" stroke="#9673a6" stroke-width="2"/>
  <text x="160" y="620" font-family="Arial" font-size="14" text-anchor="middle">kubelet</text>

  <rect x="230" y="600" width="150" height="30" rx="5" ry="5" fill="#e1d5e7" stroke="#9673a6" stroke-width="2"/>
  <text x="305" y="620" font-family="Arial" font-size="14" text-anchor="middle">kube-proxy</text>

  <rect x="100" y="640" width="280" height="30" rx="5" ry="5" fill="#e1d5e7" stroke="#9673a6" stroke-width="2"/>
  <text x="240" y="660" font-family="Arial" font-size="14" text-anchor="middle">Container Runtime (containerd)</text>

  <!-- 애플리케이션 Pod들 -->
  <rect x="100" y="680" width="120" height="50" rx="5" ry="5" fill="#f8cecc" stroke="#b85450" stroke-width="2"/>
  <text x="160" y="705" font-family="Arial" font-size="14" text-anchor="middle">애플리케이션</text>
  <text x="160" y="720" font-family="Arial" font-size="10" text-anchor="middle">사이드카 프록시</text>

  <rect x="230" y="680" width="150" height="50" rx="5" ry="5" fill="#f8cecc" stroke="#b85450" stroke-width="2"/>
  <text x="305" y="705" font-family="Arial" font-size="14" text-anchor="middle">애플리케이션</text>
  <text x="305" y="720" font-family="Arial" font-size="10" text-anchor="middle">사이드카 프록시</text>

  <!-- 워커 노드 2 -->
  <rect x="440" y="560" width="320" height="180" rx="5" ry="5" fill="#ffffff" stroke="#d6b656" stroke-width="2"/>
  <text x="600" y="585" font-family="Arial" font-size="16" font-weight="bold" text-anchor="middle">워커 노드 2</text>

  <rect x="460" y="600" width="120" height="30" rx="5" ry="5" fill="#e1d5e7" stroke="#9673a6" stroke-width="2"/>
  <text x="520" y="620" font-family="Arial" font-size="14" text-anchor="middle">kubelet</text>

  <rect x="590" y="600" width="150" height="30" rx="5" ry="5" fill="#e1d5e7" stroke="#9673a6" stroke-width="2"/>
  <text x="665" y="620" font-family="Arial" font-size="14" text-anchor="middle">kube-proxy</text>

  <rect x="460" y="640" width="280" height="30" rx="5" ry="5" fill="#e1d5e7" stroke="#9673a6" stroke-width="2"/>
  <text x="600" y="660" font-family="Arial" font-size="14" text-anchor="middle">Container Runtime (containerd)</text>

  <!-- 애플리케이션 Pod들 -->
  <rect x="460" y="680" width="120" height="50" rx="5" ry="5" fill="#f8cecc" stroke="#b85450" stroke-width="2"/>
  <text x="520" y="705" font-family="Arial" font-size="14" text-anchor="middle">애플리케이션</text>
  <text x="520" y="720" font-family="Arial" font-size="10" text-anchor="middle">사이드카 프록시</text>

  <rect x="590" y="680" width="150" height="50" rx="5" ry="5" fill="#f8cecc" stroke="#b85450" stroke-width="2"/>
  <text x="665" y="705" font-family="Arial" font-size="14" text-anchor="middle">애플리케이션</text>
  <text x="665" y="720" font-family="Arial" font-size="10" text-anchor="middle">사이드카 프록시</text>

  <!-- 워커 노드 3 -->
  <rect x="800" y="560" width="320" height="180" rx="5" ry="5" fill="#ffffff" stroke="#d6b656" stroke-width="2"/>
  <text x="960" y="585" font-family="Arial" font-size="16" font-weight="bold" text-anchor="middle">워커 노드 3</text>

  <rect x="820" y="600" width="120" height="30" rx="5" ry="5" fill="#e1d5e7" stroke="#9673a6" stroke-width="2"/>
  <text x="880" y="620" font-family="Arial" font-size="14" text-anchor="middle">kubelet</text>

  <rect x="950" y="600" width="150" height="30" rx="5" ry="5" fill="#e1d5e7" stroke="#9673a6" stroke-width="2"/>
  <text x="1025" y="620" font-family="Arial" font-size="14" text-anchor="middle">kube-proxy</text>

  <rect x="820" y="640" width="280" height="30" rx="5" ry="5" fill="#e1d5e7" stroke="#9673a6" stroke-width="2"/>
  <text x="960" y="660" font-family="Arial" font-size="14" text-anchor="middle">Container Runtime (containerd)</text>

  <!-- 애플리케이션 Pod들 -->
  <rect x="820" y="680" width="120" height="50" rx="5" ry="5" fill="#f8cecc" stroke="#b85450" stroke-width="2"/>
  <text x="880" y="705" font-family="Arial" font-size="14" text-anchor="middle">애플리케이션</text>
  <text x="880" y="720" font-family="Arial" font-size="10" text-anchor="middle">사이드카 프록시</text>

  <rect x="950" y="680" width="150" height="50" rx="5" ry="5" fill="#f8cecc" stroke="#b85450" stroke-width="2"/>
  <text x="1025" y="705" font-family="Arial" font-size="14" text-anchor="middle">애플리케이션</text>
  <text x="1025" y="720" font-family="Arial" font-size="10" text-anchor="middle">사이드카 프록시</text>

  <!-- 스토리지 레이어 -->
  <rect x="50" y="770" width="1100" height="80" rx="10" ry="10" fill="#d5e8d4" stroke="#82b366" stroke-width="2"/>
  <text x="600" y="795" font-family="Arial" font-size="20" font-weight="bold" text-anchor="middle">스토리지 레이어</text>

  <rect x="100" y="810" width="200" height="30" rx="5" ry="5" fill="#ffffff" stroke="#82b366" stroke-width="2"/>
  <text x="200" y="830" font-family="Arial" font-size="14" text-anchor="middle">CSI 드라이버</text>

  <rect x="340" y="810" width="200" height="30" rx="5" ry="5" fill="#ffffff" stroke="#82b366" stroke-width="2"/>
  <text x="440" y="830" font-family="Arial" font-size="14" text-anchor="middle">분산 스토리지</text>

  <rect x="580" y="810" width="240" height="30" rx="5" ry="5" fill="#ffffff" stroke="#82b366" stroke-width="2"/>
  <text x="700" y="830" font-family="Arial" font-size="14" text-anchor="middle">PersistentVolumes</text>

  <rect x="860" y="810" width="240" height="30" rx="5" ry="5" fill="#ffffff" stroke="#82b366" stroke-width="2"/>
  <text x="980" y="830" font-family="Arial" font-size="14" text-anchor="middle">StorageClass</text>

  <!-- 운영관리 레이어 -->
  <rect x="50" y="860" width="1100" height="220" rx="10" ry="10" fill="#e1d5e7" stroke="#9673a6" stroke-width="2"/>
  <text x="600" y="885" font-family="Arial" font-size="20" font-weight="bold" text-anchor="middle">운영관리 레이어</text>

  <!-- 모니터링 및 관측성 -->
  <rect x="80" y="900" width="520" height="160" rx="5" ry="5" fill="#ffffff" stroke="#9673a6" stroke-width="2"/>
  <text x="340" y="925" font-family="Arial" font-size="16" font-weight="bold" text-anchor="middle">모니터링 및 관측성</text>

  <rect x="100" y="940" width="220" height="30" rx="5" ry="5" fill="#dae8fc" stroke="#6c8ebf" stroke-width="2"/>
  <text x="210" y="960" font-family="Arial" font-size="14" text-anchor="middle">Prometheus + Grafana</text>

  <rect x="340" y="940" width="240" height="30" rx="5" ry="5" fill="#dae8fc" stroke="#6c8ebf" stroke-width="2"/>
  <text x="460" y="960" font-family="Arial" font-size="14" text-anchor="middle">Loki/EFK/ELK 스택 (로깅)</text>

  <rect x="100" y="980" width="240" height="30" rx="5" ry="5" fill="#dae8fc" stroke="#6c8ebf" stroke-width="2"/>
  <text x="220" y="1000" font-family="Arial" font-size="14" text-anchor="middle">Jaeger/Zipkin (분산 추적)</text>

  <rect x="360" y="980" width="220" height="30" rx="5" ry="5" fill="#dae8fc" stroke="#6c8ebf" stroke-width="2"/>
  <text x="470" y="1000" font-family="Arial" font-size="14" text-anchor="middle">알림 시스템</text>

  <rect x="100" y="1020" width="460" height="30" rx="5" ry="5" fill="#dae8fc" stroke="#6c8ebf" stroke-width="2"/>
  <text x="330" y="1040" font-family="Arial" font-size="14" text-anchor="middle">서비스 레벨 목표 (SLO) / 서비스 레벨 지표 (SLI)
    모니터링
  </text>

  <!-- DevOps 및 CI/CD -->
  <rect x="620" y="900" width="520" height="160" rx="5" ry="5" fill="#ffffff" stroke="#9673a6" stroke-width="2"/>
  <text x="880" y="925" font-family="Arial" font-size="16" font-weight="bold" text-anchor="middle">DevOps 및 CI/CD</text>

  <rect x="640" y="940" width="220" height="30" rx="5" ry="5" fill="#dae8fc" stroke="#6c8ebf" stroke-width="2"/>
  <text x="750" y="960" font-family="Arial" font-size="14" text-anchor="middle">GitOps (ArgoCD/Flux)</text>

  <rect x="880" y="940" width="240" height="30" rx="5" ry="5" fill="#dae8fc" stroke="#6c8ebf" stroke-width="2"/>
  <text x="1000" y="960" font-family="Arial" font-size="14" text-anchor="middle">Helm (패키지 관리)</text>

  <rect x="640" y="980" width="220" height="30" rx="5" ry="5" fill="#dae8fc" stroke="#6c8ebf" stroke-width="2"/>
  <text x="750" y="1000" font-family="Arial" font-size="14" text-anchor="middle">Operator 패턴</text>

  <rect x="880" y="980" width="240" height="30" rx="5" ry="5" fill="#dae8fc" stroke="#6c8ebf" stroke-width="2"/>
  <text x="1000" y="1000" font-family="Arial" font-size="14" text-anchor="middle">구성 관리 (Kustomize)</text>

  <rect x="640" y="1020" width="220" height="30" rx="5" ry="5" fill="#dae8fc" stroke="#6c8ebf" stroke-width="2"/>
  <text x="750" y="1040" font-family="Arial" font-size="14" text-anchor="middle">Secret 관리</text>

  <rect x="880" y="1020" width="240" height="30" rx="5" ry="5" fill="#dae8fc" stroke="#6c8ebf" stroke-width="2"/>
  <text x="1000" y="1040" font-family="Arial" font-size="14" text-anchor="middle">Cert-Manager</text>
</svg>
